General                          : ChattChitto RG - Movies [R2L]
==========
Complete name                    : Futurama Bender's Game 2008 720p BRRip H264 [ChattChitto RG]
Format                           : MPEG-4
Format profile                   : Base Media
Codec ID                         : isom
File size                        : 1.48 GiB
Duration                         : 1h 27mn
Overall bit rate                 : 2 423 Kbps
Encoded date                     : UTC 2011-02-01 17:38:07

Video
==========
ID                               : 1
Format                           : AVC
Format/Info                      : Advanced Video Codec
Format profile                   : High@L4.0
Format settings, CABAC           : Yes
Format settings, ReFrames        : 4 frames
Codec ID                         : avc1
Codec ID/Info                    : Advanced Video Coding
Duration                         : 1h 27mn
Bit rate mode                    : Variable
Bit rate                         : 2 100 Kbps
Maximum bit rate                 : 38.1 Mbps
Width                            : 1 280 pixels
Height                           : 720 pixels
Display aspect ratio             : 16:9
Frame rate mode                  : Constant
Frame rate                       : 23.976 fps
Resolution                       : 24 bits
Colorimetry                      : 4:2:0
Scan type                        : Progressive
Bits/(Pixel*Frame)               : 0.095
Stream size                      : 1.28 GiB (87%)
Writing library                  : x264 core 84 r1400M 20fa784
Encoded date                     : UTC 2011-01-26 10:40:36

Audio
==========
ID                               : 2
Format                           : AAC
Format/Info                      : Advanced Audio Codec
Format version                   : Version 4
Format profile                   : LC
Format settings, SBR             : No
Codec ID                         : 40
Duration                         : 1h 27mn
Bit rate mode                    : Variable
Bit rate                         : 318 Kbps
Maximum bit rate                 : 474 Kbps
Channel(s)                       : 6 channels
Channel positions                : Front: L C R, Rear: L R, LFE
Sampling rate                    : 48.0 KHz
Resolution                       : 16 bits
Stream size                      : 199 MiB (13%)
Encoded date                     : UTC 2011-02-01 17:39:10

Subtitles                        : English | French | Spanish


----------------------------------------------------
IMDB Link: http://www.imdb.com/title/tt1054486/
----------------------------------------------------



Screen Shots:
==============    
http://chattchitto.net/chattchittorg/movies/brrip/2011/benders_game/3.png 
http://chattchitto.net/chattchittorg/movies/brrip/2011/benders_game/4.png 
http://chattchitto.net/chattchittorg/movies/brrip/2011/benders_game/5.png 
http://chattchitto.net/chattchittorg/movies/brrip/2011/benders_game/6.png 
http://chattchitto.net/chattchittorg/movies/brrip/2011/benders_game/7.png



ScreenShots Comparison:
=========================  
http://screenshotcomparison.com/comparison/29489



Plot:
======
With fuel prices skyrocketing, the Planet Express crew sets off on a dangerous mission: to infiltrate the world's only dark-matter mine, source of all spaceship fuel. But deep beneath the surface lies a far stranger place... a medieval land of dragons and sorcery and intoxicated knights who look suspiciously like Bender. So park your hover-car and saddle up your unicorn Futurama's grandest adventure yet: Bender's Game!



Release Info:
==============
original name .... : Futurama Bender's Game 2008 720p BRRip H264 [ChattChitto RG]
ripper.............: ESiR
encoder............: Recalled2Life (R2L)
video codec........: H264/.MP4
video bitrate......: 2100 Kbps
audio codec........: AAC-LC
aspect ratio.......: 16:9
resolution.........: 1280 x 720
genre..............: Animation | Action | Adventure
runtime............: 1h 27mn
language...........: English
rating.............: Not Rated
subtitles..........: English | French | Spanish
sample.............: Yes [11.5 MB]
2ch Audio..........: 2ch Audio for XBox Viewers
Compatibility .....: XBox | PS3 | WD Live



Source:
========
Futurama.Bender's.Game.2008.720p.BluRay.DTS.x264-ESiR  THANKS!



Notes:
=======
ChattChitto RG Encourages Burning this Film with ConvertXtoDVD and Playing with VLC media player.
XBox 360 | PS3 | WD Live - Compatible 
Enhanced for your viewing pleasure ;)